# xmcd
#
# Track frame offsets:
#	150
#	17706
#	35001
#	47390
#	65141
#	85364
#	102860
#	122661
#	137977
#	154403
#	169985
#	182685
#	198549
#	214813
#	229877
#	244955
#	262575
#
# Disc length: 3742 seconds
#
# Revision: 1
# Processed by: cddbd v1.5.2PL0 Copyright (c) Steve Scherf et al.
# Submitted via: audiograbber 1.83.01
#
DISCID=f60e9c11
DTITLE=Various Artist - Pure... Country CD4
DYEAR=2010
DGENRE=Country
TTITLE0=Alan Jackson - It's Five O'Clock Somewhere
TTITLE1=Sara Evans - Suds In The Bucket
TTITLE2=Clint Black - A Good Run Of Bad Luck
TTITLE3=Montgomery Gentry - Roll With Me
TTITLE4=Brad Paisley - She's Everything
TTITLE5=Kenny Chesney - You Had Me From Hello
TTITLE6=Martina McBride - I Just Call You Mine
TTITLE7=Brooks and Dunn - Ain't Nothing 'Bout You
TTITLE8=Gretchen Wilson - Redneck Woman
TTITLE9=Chet Atkins and Mark Knopfler - Yakety Axe
TTITLE10=Aaron Tippin - There Ain't Nothin' Wrong With The Radio
TTITLE11=Doug Stone - A Jukebox With A Country Song
TTITLE12=Patty Loveless - Blame It On Your Heart
TTITLE13=Diamond Rio - Meet In The Middle
TTITLE14=Sylvia - Nobody
TTITLE15=Juice Newton - Both To Each Other (Friends and Lovers)
TTITLE16=Lonestar - Amazed
EXTD=
EXTT0=
EXTT1=
EXTT2=
EXTT3=
EXTT4=
EXTT5=
EXTT6=
EXTT7=
EXTT8=
EXTT9=
EXTT10=
EXTT11=
EXTT12=
EXTT13=
EXTT14=
EXTT15=
EXTT16=
PLAYORDER=
